{"title":"Men.in.Black.3.2012.TS.V2.XviD.Feel-Free [ JohnPc666 ]","uid":7319561,"size":1043725794,"categoryP":"video","categoryS":"movies","magnet":"?xt=urn:btih:0a851882d4aa41e8f3cedfda2e5ef02f62b618a3&amp;dn=Men.in.Black.3.2012.TS.V2.XviD.Feel-Free+%5B+JohnPc666+%5D&amp;tr=udp%3A%2F%2Ftracker.openbittorrent.com%3A80&amp;tr=udp%3A%2F%2Fopen.demonii.com%3A1337&amp;tr=udp%3A%2F%2Ftracker.coppersurfer.tk%3A6969&amp;tr=udp%3A%2F%2Fexodus.desync.com%3A6969","seeders":3,"leechers":0,"uploader":"johnpc666","files":-1,"time":1338585727,"description":"Genre:Action | Comedy | Sci-Fi\nLanguage:English\nIMDb:http://www.imdb.com/title/tt1409024/\nSource:Ludi.v.chornom.3.2012.D.HD-TS/ADTRG Thanks!\nEncoder:Tony\nFormat: AVI\nFormat/Info: Audio Video Interleave\nFile size: 993 MiB\nDuration: 1h 37mn\nOverall bit rate: 1 419 Kbps\n\nVideo\nID: 0\nFormat: MPEG-4 Visual\nFormat profile: Advanced Simple@L5\nFormat settings, BVOP: 2\nFormat settings, QPel: No\nFormat settings, GMC: No warppoints\nFormat settings, Matrix: Default (H.263)\nMuxing mode: Packed bitstream\nCodec ID: XVID\nCodec ID/Hint: XviD\nDuration: 1h 37mn\nBit rate: 1 217 Kbps\nWidth: 640 pixels\nHeight: 312 pixels\nDisplay aspect ratio: 2.051\nFrame rate: 23.976 fps\nColor space: YUV\nChroma subsampling: 4:2:0\nBit depth: 8 bits\nScan type: Progressive\nCompression mode: Lossy\nBits/(Pixel*Frame): 0.254\nStream size: 852 MiB (86%)\nWriting library: XviD 64\n\nAudio\nID: 1\nFormat: AC-3\nFormat/Info: Audio Coding 3\nMode extension: CM (complete main)\nFormat settings, Endianness: Big\nCodec ID: 2000\nDuration: 1h 37mn\nBit rate mode: Constant\nBit rate: 192 Kbps\nChannel(s): 2 channels\nChannel positions: Front: L R\nSampling rate: 48.0 KHz\nBit depth: 16 bits\nCompression mode: Lossy\nStream size: 134 MiB (14%)\nAlignment: Split accross interleaves\nInterleave, duration: 42 ms (1.00 video frame)\nInterleave, preload duration: 500 ms\n\nPlot:\nAgent J travels in time to MIB's early years in the 1960s, to stop an alien from assassinating his friend Agent K and changing history\n\nSCREENS\n[img]http://bayimg.com/cAobmaadp[/img]\n[img]http://bayimg.com/cAoBoaaDP[/img]\nMORE SCREENS IN THE DOWNLOAD\n---------------------------------------------------------------------------------\n\nPlease seed and enjoy :)\n\n-=[ JohnPc666 ]=-\n\n&lt;a class=&quot;__cf_email__&quot; href=&quot;/cdn-cgi/l/email-protection&quot; data-cfemail=&quot;d0babfb8bea0b3e6e6e690b8a5a3b8bdb1b9bcfeb3bfbd&quot;&gt;[email&amp;#160;protected]&lt;/a&gt;&lt;script cf-hash='f9e31' type=&quot;text/javascript&quot;&gt;\n/* &lt;![CDATA[ */!function(){try{var t=&quot;currentScript&quot;in document?document.currentScript:function(){for(var t=document.getElementsByTagName(&quot;script&quot;),e=t.length;e--;)if(t[e].getAttribute(&quot;cf-hash&quot;))return t[e]}();if(t&amp;&amp;t.previousSibling){var e,r,n,i,c=t.previousSibling,a=c.getAttribute(&quot;data-cfemail&quot;);if(a){for(e=&quot;&quot;,r=parseInt(a.substr(0,2),16),n=2;a.length-n;n+=2)i=parseInt(a.substr(n,2),16)^r,e+=String.fromCharCode(i);e=document.createTextNode(e),c.parentNode.replaceChild(e,c)}}}catch(u){}}();/* ]]&gt; */&lt;/script&gt;\n","torrent":{"xt":"urn:btih:0a851882d4aa41e8f3cedfda2e5ef02f62b618a3","amp;dn":"Men.in.Black.3.2012.TS.V2.XviD.Feel-Free+%5B+JohnPc666+%5D","amp;tr":["udp%3A%2F%2Ftracker.openbittorrent.com%3A80","udp%3A%2F%2Fopen.demonii.com%3A1337","udp%3A%2F%2Ftracker.coppersurfer.tk%3A6969","udp%3A%2F%2Fexodus.desync.com%3A6969"],"infoHash":"0a851882d4aa41e8f3cedfda2e5ef02f62b618a3","infoHashBuffer":{"type":"Buffer","data":[10,133,24,130,212,170,65,232,243,206,223,218,46,94,240,47,98,182,24,163]},"announce":[],"urlList":[]}}